<mxfile host="65bd71144e">
    <diagram id="g9CKXnu4yDopAe6UseqP" name="Page-1">
        <mxGraphModel dx="1023" dy="634" grid="1" gridSize="10" guides="1" tooltips="1" connect="1" arrows="1" fold="1" page="1" pageScale="1" pageWidth="827" pageHeight="1169" background="none" math="0" shadow="0">
            <root>
                <mxCell id="0"/>
                <mxCell id="1" parent="0"/>
                <mxCell id="7" value="" style="edgeStyle=none;html=1;fontSize=14;" edge="1" parent="1" source="6" target="2">
                    <mxGeometry relative="1" as="geometry"/>
                </mxCell>
                <mxCell id="6" value="" style="whiteSpace=wrap;html=1;fontSize=14;fillColor=#1ba1e2;fontColor=#ffffff;strokeColor=#006EAF;rounded=1;" vertex="1" parent="1">
                    <mxGeometry x="150" y="25" width="120" height="60" as="geometry"/>
                </mxCell>
                <mxCell id="20" value="" style="edgeStyle=none;html=1;fontSize=14;" edge="1" parent="1" source="2" target="19">
                    <mxGeometry relative="1" as="geometry"/>
                </mxCell>
                <mxCell id="2" value="&lt;span style=&quot;font-size: 14px;&quot;&gt;VALGMENY VALUTA&lt;br&gt;Valutavalg vises fra 1 - 4&lt;br&gt;&lt;/span&gt;" style="whiteSpace=wrap;html=1;fillColor=#1ba1e2;fontColor=#ffffff;strokeColor=#006EAF;rounded=1;" vertex="1" parent="1">
                    <mxGeometry x="110" y="130" width="210" height="60" as="geometry"/>
                </mxCell>
                <mxCell id="3" value="START" style="text;html=1;align=center;verticalAlign=middle;resizable=0;points=[];autosize=1;strokeColor=none;fillColor=none;fontSize=14;rounded=1;" vertex="1" parent="1">
                    <mxGeometry x="170" y="40" width="70" height="30" as="geometry"/>
                </mxCell>
                <mxCell id="22" value="" style="edgeStyle=none;html=1;fontSize=14;" edge="1" parent="1" source="19" target="21">
                    <mxGeometry relative="1" as="geometry"/>
                </mxCell>
                <mxCell id="24" value="" style="edgeStyle=none;html=1;fontSize=14;" edge="1" parent="1" source="19" target="23">
                    <mxGeometry relative="1" as="geometry"/>
                </mxCell>
                <mxCell id="19" value="&lt;span style=&quot;font-size: 14px;&quot;&gt;Bruker velger 1 - 4&lt;br&gt;&lt;/span&gt;" style="whiteSpace=wrap;html=1;fillColor=#1ba1e2;fontColor=#ffffff;strokeColor=#006EAF;rounded=1;" vertex="1" parent="1">
                    <mxGeometry x="110" y="290" width="210" height="60" as="geometry"/>
                </mxCell>
                <mxCell id="33" value="" style="edgeStyle=elbowEdgeStyle;html=1;fontSize=13;" edge="1" parent="1" source="21" target="32">
                    <mxGeometry relative="1" as="geometry">
                        <Array as="points">
                            <mxPoint x="550" y="410"/>
                        </Array>
                    </mxGeometry>
                </mxCell>
                <mxCell id="35" value="" style="edgeStyle=elbowEdgeStyle;html=1;fontSize=13;" edge="1" parent="1" source="21" target="34">
                    <mxGeometry relative="1" as="geometry">
                        <Array as="points">
                            <mxPoint x="710" y="510"/>
                        </Array>
                    </mxGeometry>
                </mxCell>
                <mxCell id="21" value="&lt;span style=&quot;font-size: 14px;&quot;&gt;Brukervalg TIL eller FRA NOK konvertering&lt;br&gt;1 - 2&lt;br&gt;fraNOK/tilNOK&lt;br&gt;&lt;/span&gt;" style="whiteSpace=wrap;html=1;fillColor=#1ba1e2;fontColor=#ffffff;strokeColor=#006EAF;rounded=1;" vertex="1" parent="1">
                    <mxGeometry x="550" y="290" width="210" height="70" as="geometry"/>
                </mxCell>
                <mxCell id="23" value="&lt;span style=&quot;font-size: 14px;&quot;&gt;Setter avslutt = true;&lt;br&gt;&lt;br&gt;Programmet avsluttes.&lt;br&gt;&lt;/span&gt;" style="whiteSpace=wrap;html=1;fillColor=#1ba1e2;fontColor=#ffffff;strokeColor=#006EAF;rounded=1;" vertex="1" parent="1">
                    <mxGeometry x="135" y="450" width="165" height="80" as="geometry"/>
                </mxCell>
                <mxCell id="25" value="Case 1 - 3 velges&lt;br&gt;&amp;nbsp;(Dollar/Euro/zimbabwe_dollar)" style="text;html=1;align=center;verticalAlign=middle;resizable=0;points=[];autosize=1;strokeColor=none;fillColor=none;fontSize=13;rounded=1;" vertex="1" parent="1">
                    <mxGeometry x="340" y="280" width="200" height="40" as="geometry"/>
                </mxCell>
                <mxCell id="27" value="Case 4 velges" style="text;html=1;align=center;verticalAlign=middle;resizable=0;points=[];autosize=1;strokeColor=none;fillColor=none;fontSize=13;rotation=0;rounded=1;" vertex="1" parent="1">
                    <mxGeometry x="210" y="380" width="110" height="30" as="geometry"/>
                </mxCell>
                <mxCell id="46" style="edgeStyle=none;rounded=1;html=1;exitX=0.5;exitY=1;exitDx=0;exitDy=0;entryX=0.5;entryY=0;entryDx=0;entryDy=0;" edge="1" parent="1" source="32" target="44">
                    <mxGeometry relative="1" as="geometry"/>
                </mxCell>
                <mxCell id="32" value="&lt;span style=&quot;font-size: 14px;&quot;&gt;Case 1:&lt;br&gt;&lt;br&gt;Setter tilNOK = true;&lt;br&gt;&lt;/span&gt;" style="whiteSpace=wrap;html=1;fillColor=#1ba1e2;fontColor=#ffffff;strokeColor=#006EAF;rounded=1;" vertex="1" parent="1">
                    <mxGeometry x="440" y="550" width="210" height="55" as="geometry"/>
                </mxCell>
                <mxCell id="40" style="edgeStyle=none;hachureGap=4;html=1;exitX=0.5;exitY=1;exitDx=0;exitDy=0;entryX=0.5;entryY=0;entryDx=0;entryDy=0;fontFamily=Architects Daughter;fontSource=https%3A%2F%2Ffonts.googleapis.com%2Fcss%3Ffamily%3DArchitects%2BDaughter;fontSize=16;" edge="1" parent="1" source="34" target="41">
                    <mxGeometry relative="1" as="geometry">
                        <mxPoint x="685" y="1040" as="targetPoint"/>
                    </mxGeometry>
                </mxCell>
                <mxCell id="34" value="&lt;span style=&quot;font-size: 14px;&quot;&gt;Case 2:&lt;br&gt;&lt;br&gt;Setter fraNOK = true;&lt;br&gt;&lt;/span&gt;" style="whiteSpace=wrap;html=1;fillColor=#1ba1e2;fontColor=#ffffff;strokeColor=#006EAF;rounded=1;" vertex="1" parent="1">
                    <mxGeometry x="600" y="760" width="210" height="90" as="geometry"/>
                </mxCell>
                <mxCell id="36" value="Case 1 velges &lt;br&gt;(FRA VALUTA&lt;br&gt;&amp;nbsp;TIL NOK)" style="text;html=1;align=center;verticalAlign=middle;resizable=0;points=[];autosize=1;strokeColor=none;fillColor=none;fontSize=13;rounded=1;" vertex="1" parent="1">
                    <mxGeometry x="440" y="470" width="110" height="60" as="geometry"/>
                </mxCell>
                <mxCell id="37" value="Case 2 velges (FRA NOK TIL VALUTA)" style="text;strokeColor=none;align=center;fillColor=none;html=1;verticalAlign=middle;whiteSpace=wrap;rounded=1;fontSize=13;" vertex="1" parent="1">
                    <mxGeometry x="720" y="620" width="60" height="30" as="geometry"/>
                </mxCell>
                <mxCell id="43" value="" style="edgeStyle=none;rounded=1;html=1;" edge="1" parent="1" source="41" target="42">
                    <mxGeometry relative="1" as="geometry"/>
                </mxCell>
                <mxCell id="41" value="&lt;span style=&quot;font-size: 14px;&quot;&gt;Brukervalg antall NOK &lt;br&gt;til valgt valuta&lt;br&gt;&lt;/span&gt;" style="whiteSpace=wrap;html=1;fillColor=#1ba1e2;fontColor=#ffffff;strokeColor=#006EAF;rounded=1;" vertex="1" parent="1">
                    <mxGeometry x="610" y="880" width="210" height="90" as="geometry"/>
                </mxCell>
                <mxCell id="52" style="edgeStyle=none;rounded=1;html=1;exitX=0;exitY=0.5;exitDx=0;exitDy=0;entryX=1;entryY=0.5;entryDx=0;entryDy=0;" edge="1" parent="1" source="42" target="50">
                    <mxGeometry relative="1" as="geometry"/>
                </mxCell>
                <mxCell id="42" value="&lt;span style=&quot;font-size: 14px;&quot;&gt;Metoden tilNorskeKroner bruker brukervalgt beløp,&lt;br&gt;lagrer utregning, og skriver &lt;br&gt;ut verdien&lt;br&gt;&lt;/span&gt;" style="whiteSpace=wrap;html=1;fillColor=#1ba1e2;fontColor=#ffffff;strokeColor=#006EAF;rounded=1;" vertex="1" parent="1">
                    <mxGeometry x="360" y="880" width="220" height="70" as="geometry"/>
                </mxCell>
                <mxCell id="47" style="edgeStyle=none;rounded=1;html=1;exitX=0.5;exitY=1;exitDx=0;exitDy=0;entryX=0.5;entryY=0;entryDx=0;entryDy=0;" edge="1" parent="1" source="44" target="45">
                    <mxGeometry relative="1" as="geometry"/>
                </mxCell>
                <mxCell id="44" value="&lt;span style=&quot;font-size: 14px;&quot;&gt;Brukervalg antall valgt valuta til NOK&amp;nbsp;&lt;br&gt;&lt;/span&gt;" style="whiteSpace=wrap;html=1;fillColor=#1ba1e2;fontColor=#ffffff;strokeColor=#006EAF;rounded=1;" vertex="1" parent="1">
                    <mxGeometry x="450" y="630" width="210" height="90" as="geometry"/>
                </mxCell>
                <mxCell id="51" style="edgeStyle=none;rounded=1;html=1;exitX=0;exitY=0.5;exitDx=0;exitDy=0;entryX=1;entryY=0.5;entryDx=0;entryDy=0;" edge="1" parent="1" source="45" target="50">
                    <mxGeometry relative="1" as="geometry"/>
                </mxCell>
                <mxCell id="45" value="&lt;span style=&quot;font-size: 14px;&quot;&gt;Metoden fraNorskeKroner bruker brukervalgt beløp,&lt;br&gt;lagrer utregning, og skriver&lt;br&gt;&amp;nbsp;ut verdien&lt;br&gt;&lt;/span&gt;" style="whiteSpace=wrap;html=1;fillColor=#1ba1e2;fontColor=#ffffff;strokeColor=#006EAF;rounded=1;" vertex="1" parent="1">
                    <mxGeometry x="350" y="760" width="220" height="80" as="geometry"/>
                </mxCell>
                <mxCell id="53" style="edgeStyle=none;rounded=1;html=1;exitX=0.75;exitY=0;exitDx=0;exitDy=0;entryX=0.75;entryY=1;entryDx=0;entryDy=0;" edge="1" parent="1" source="50" target="23">
                    <mxGeometry relative="1" as="geometry"/>
                </mxCell>
                <mxCell id="54" style="edgeStyle=none;rounded=1;html=1;exitX=0;exitY=0.25;exitDx=0;exitDy=0;entryX=0;entryY=0.5;entryDx=0;entryDy=0;" edge="1" parent="1" source="50" target="2">
                    <mxGeometry relative="1" as="geometry">
                        <Array as="points">
                            <mxPoint x="50" y="410"/>
                        </Array>
                    </mxGeometry>
                </mxCell>
                <mxCell id="50" value="&lt;span style=&quot;font-size: 14px;&quot;&gt;Brukervalg &quot;konvertere på nytt&quot;&lt;br&gt;1 - 2&lt;br&gt;Ja/Nei&lt;br&gt;&lt;/span&gt;" style="whiteSpace=wrap;html=1;fillColor=#1ba1e2;fontColor=#ffffff;strokeColor=#006EAF;rounded=1;" vertex="1" parent="1">
                    <mxGeometry x="80" y="770" width="220" height="80" as="geometry"/>
                </mxCell>
                <mxCell id="55" value="Case 1 velges, programmets &lt;br&gt;løkke kjøres igjen" style="text;html=1;align=center;verticalAlign=middle;resizable=0;points=[];autosize=1;strokeColor=none;fillColor=none;rotation=80;" vertex="1" parent="1">
                    <mxGeometry x="10" y="620" width="180" height="40" as="geometry"/>
                </mxCell>
                <mxCell id="56" value="Case 2 velges" style="text;html=1;align=center;verticalAlign=middle;resizable=0;points=[];autosize=1;strokeColor=none;fillColor=none;" vertex="1" parent="1">
                    <mxGeometry x="250" y="625" width="100" height="30" as="geometry"/>
                </mxCell>
            </root>
        </mxGraphModel>
    </diagram>
</mxfile>